<mxGraphModel dx="1252" dy="639" grid="1" gridSize="10" guides="1" tooltips="1" connect="1" arrows="1" fold="1" page="1" pageScale="1" pageWidth="3300" pageHeight="4681" math="0" shadow="0"><root><mxCell id="0"/><mxCell id="1" parent="0"/><mxCell id="3" value="" style="whiteSpace=wrap;html=1;" vertex="1" parent="1"><mxGeometry x="560" y="240" width="240" height="200" as="geometry"/></mxCell><mxCell id="4" value="&lt;font style=&quot;font-size: 36px&quot;&gt;POULAILLER&lt;/font&gt;" style="text;html=1;resizable=0;autosize=1;align=center;verticalAlign=middle;points=[];fillColor=none;strokeColor=none;rounded=0;" vertex="1" parent="1"><mxGeometry x="560" y="330" width="240" height="20" as="geometry"/></mxCell><mxCell id="6" value="&lt;p style=&quot;margin: 0px ; margin-top: 4px ; text-align: center&quot;&gt;&amp;lt;&amp;lt;block&amp;gt;&amp;gt;&lt;br&gt;&lt;b&gt;interface utilisateur&lt;/b&gt;&lt;/p&gt;&lt;hr&gt;&lt;p style=&quot;font-size: 10px ; margin: 0px ; text-align: center&quot;&gt;&lt;i&gt;parts&lt;/i&gt;&lt;/p&gt;&lt;p style=&quot;margin: 0px ; margin-left: 8px ; text-align: left&quot;&gt;serveur web&lt;/p&gt;" style="shape=rect;html=1;overflow=fill;whiteSpace=wrap;" vertex="1" parent="1"><mxGeometry x="220" y="20" width="200" height="180" as="geometry"/></mxCell><mxCell id="7" value="part1" style="align=right;html=1;verticalAlign=bottom;endArrow=none;startArrow=diamondThin;startSize=14;startFill=1;edgeStyle=none;" edge="1" parent="1" source="3" target="6"><mxGeometry x="0.2" y="-18" relative="1" as="geometry"><mxPoint x="370" y="280" as="sourcePoint"/><mxPoint x="530" y="280" as="targetPoint"/><mxPoint as="offset"/></mxGeometry></mxCell><mxCell id="8" value="1" style="resizable=0;html=1;align=left;verticalAlign=top;labelBackgroundColor=none;fontSize=10" connectable="0" vertex="1" parent="7"><mxGeometry x="-1" relative="1" as="geometry"/></mxCell><mxCell id="9" value="0..*" style="resizable=0;html=1;align=right;verticalAlign=top;labelBackgroundColor=none;fontSize=10" connectable="0" vertex="1" parent="7"><mxGeometry x="1" relative="1" as="geometry"/></mxCell><mxCell id="10" value="&lt;p style=&quot;margin: 0px ; margin-top: 4px ; text-align: center&quot;&gt;&amp;lt;&amp;lt;block&amp;gt;&amp;gt;&lt;br&gt;&lt;b&gt;stock de grain&lt;/b&gt;&lt;/p&gt;&lt;hr&gt;&lt;p style=&quot;font-size: 10px ; margin: 0px ; text-align: center&quot;&gt;&lt;i&gt;parts&lt;/i&gt;&lt;/p&gt;&lt;p style=&quot;margin: 0px ; margin-left: 8px ; text-align: left&quot;&gt;stockage&lt;/p&gt;&lt;p style=&quot;margin: 0px ; margin-left: 8px ; text-align: left&quot;&gt;distributeur&lt;/p&gt;&lt;p style=&quot;margin: 0px ; margin-left: 8px ; text-align: left&quot;&gt;capteur&lt;/p&gt;&lt;hr&gt;&lt;p style=&quot;margin: 0px ; margin-left: 8px ; text-align: center&quot;&gt;&amp;lt;&amp;lt;values&amp;gt;&amp;gt;&lt;/p&gt;&lt;p style=&quot;margin: 0px ; margin-left: 8px ; text-align: left&quot;&gt;volume = xxx Litres&lt;/p&gt;" style="shape=rect;html=1;overflow=fill;whiteSpace=wrap;" vertex="1" parent="1"><mxGeometry x="220" y="240" width="200" height="160" as="geometry"/></mxCell><mxCell id="11" value="&lt;p style=&quot;margin: 0px ; margin-top: 4px ; text-align: center&quot;&gt;&amp;lt;&amp;lt;block&amp;gt;&amp;gt;&lt;br&gt;&lt;b&gt;stock d'eau&lt;/b&gt;&lt;/p&gt;&lt;hr&gt;&lt;p style=&quot;font-size: 10px ; margin: 0px ; text-align: center&quot;&gt;&lt;i&gt;parts&lt;/i&gt;&lt;/p&gt;&lt;p style=&quot;margin: 0px ; margin-left: 8px ; text-align: left&quot;&gt;stockage&lt;/p&gt;&lt;p style=&quot;margin: 0px ; margin-left: 8px ; text-align: left&quot;&gt;distributeur&lt;/p&gt;&lt;p style=&quot;margin: 0px ; margin-left: 8px ; text-align: left&quot;&gt;capteur&lt;/p&gt;&lt;hr&gt;&lt;p style=&quot;margin: 0px ; margin-left: 8px ; text-align: center&quot;&gt;&amp;lt;&amp;lt;values&amp;gt;&amp;gt;&lt;/p&gt;&lt;p style=&quot;margin: 0px ; margin-left: 8px ; text-align: left&quot;&gt;volume = xxx:float Litres&lt;/p&gt;" style="shape=rect;html=1;overflow=fill;whiteSpace=wrap;" vertex="1" parent="1"><mxGeometry x="220" y="430" width="200" height="160" as="geometry"/></mxCell><mxCell id="12" value="part1" style="align=right;html=1;verticalAlign=bottom;endArrow=none;startArrow=diamondThin;startSize=14;startFill=1;edgeStyle=none;" edge="1" parent="1" source="3" target="10"><mxGeometry x="1" relative="1" as="geometry"><mxPoint x="490" y="509.5" as="sourcePoint"/><mxPoint x="650" y="509.5" as="targetPoint"/></mxGeometry></mxCell><mxCell id="13" value="1" style="resizable=0;html=1;align=left;verticalAlign=top;labelBackgroundColor=none;fontSize=10" connectable="0" vertex="1" parent="12"><mxGeometry x="-1" relative="1" as="geometry"/></mxCell><mxCell id="14" value="0..*" style="resizable=0;html=1;align=right;verticalAlign=top;labelBackgroundColor=none;fontSize=10" connectable="0" vertex="1" parent="12"><mxGeometry x="1" relative="1" as="geometry"/></mxCell><mxCell id="15" value="part1" style="align=right;html=1;verticalAlign=bottom;endArrow=none;startArrow=diamondThin;startSize=14;startFill=1;edgeStyle=none;" edge="1" parent="1" source="3" target="11"><mxGeometry x="1" relative="1" as="geometry"><mxPoint x="610" y="507.77333333333326" as="sourcePoint"/><mxPoint x="470" y="499.99555555555554" as="targetPoint"/></mxGeometry></mxCell><mxCell id="16" value="1" style="resizable=0;html=1;align=left;verticalAlign=top;labelBackgroundColor=none;fontSize=10" connectable="0" vertex="1" parent="15"><mxGeometry x="-1" relative="1" as="geometry"/></mxCell><mxCell id="17" value="0..*" style="resizable=0;html=1;align=right;verticalAlign=top;labelBackgroundColor=none;fontSize=10" connectable="0" vertex="1" parent="15"><mxGeometry x="1" relative="1" as="geometry"/></mxCell><mxCell id="18" value="&lt;p style=&quot;margin: 0px ; margin-top: 4px ; text-align: center&quot;&gt;&amp;lt;&amp;lt;block&amp;gt;&amp;gt;&lt;br&gt;&lt;b&gt;dortoir&lt;/b&gt;&lt;/p&gt;&lt;hr&gt;&lt;p style=&quot;margin: 0px ; margin-left: 8px ; text-align: center&quot;&gt;&amp;lt;&amp;lt;values&amp;gt;&amp;gt;&lt;/p&gt;&lt;p style=&quot;margin: 0px ; margin-left: 8px ; text-align: left&quot;&gt;place disponible = nbr de poules:int&lt;/p&gt;" style="shape=rect;html=1;overflow=fill;whiteSpace=wrap;" vertex="1" parent="1"><mxGeometry x="840" y="480" width="200" height="160" as="geometry"/></mxCell><mxCell id="19" value="part1" style="align=right;html=1;verticalAlign=bottom;endArrow=none;startArrow=diamondThin;startSize=14;startFill=1;edgeStyle=none;" edge="1" parent="1" source="3" target="18"><mxGeometry x="1" relative="1" as="geometry"><mxPoint x="570" y="343.33333333333337" as="sourcePoint"/><mxPoint x="430" y="335.55555555555554" as="targetPoint"/></mxGeometry></mxCell><mxCell id="20" value="1" style="resizable=0;html=1;align=left;verticalAlign=top;labelBackgroundColor=none;fontSize=10" connectable="0" vertex="1" parent="19"><mxGeometry x="-1" relative="1" as="geometry"/></mxCell><mxCell id="21" value="0..*" style="resizable=0;html=1;align=right;verticalAlign=top;labelBackgroundColor=none;fontSize=10" connectable="0" vertex="1" parent="19"><mxGeometry x="1" relative="1" as="geometry"/></mxCell></root></mxGraphModel>